<svg width="18" height="18" viewBox="0 0 18 18" fill="none" xmlns="http://www.w3.org/2000/svg">
<path d="M8.74286 6.22286C9.68606 5.25909 10.9142 4.62857 12.3429 4.62857C13.8432 4.62857 15.2821 5.22459 16.3431 6.28551C17.404 7.34643 18 8.78535 18 10.2857V18H15.9429V10.2857C15.9429 9.33094 15.5636 8.41526 14.8884 7.74013C14.2133 7.065 13.2976 6.68571 12.3429 6.68571C11.3881 6.68571 10.4724 7.065 9.79727 7.74013C9.12214 8.41526 8.74286 9.33094 8.74286 10.2857V18H6.68571V5.14286H8.74286V6.22286ZM1.54286 3.08571C1.13367 3.08571 0.741234 2.92316 0.451892 2.63382C0.162551 2.34448 0 1.95205 0 1.54286C0 1.13367 0.162551 0.741234 0.451892 0.451892C0.741234 0.162551 1.13367 0 1.54286 0C1.95205 0 2.34448 0.162551 2.63382 0.451892C2.92316 0.741234 3.08571 1.13367 3.08571 1.54286C3.08571 1.95205 2.92316 2.34448 2.63382 2.63382C2.34448 2.92316 1.95205 3.08571 1.54286 3.08571ZM0.514286 5.14286H2.57143V18H0.514286V5.14286Z" fill="white"/>
</svg>
